<svg width="1280" height="360" viewBox="0 0 1280 360" fill="none" xmlns="http://www.w3.org/2000/svg" role="img" aria-labelledby="title desc">
  <title id="title">Shihaab Tech logo alternative 01 - ST monogram</title>
  <desc id="desc">A premium ST monogram with a clean Shihaab Tech wordmark for dark backgrounds.</desc>
  <defs>
    <linearGradient id="stSignal" x1="72" y1="286" x2="292" y2="58" gradientUnits="userSpaceOnUse">
      <stop stop-color="#EAF2EF"/>
      <stop offset="0.32" stop-color="#63E6BE"/>
      <stop offset="0.72" stop-color="#5DF05B"/>
      <stop offset="1" stop-color="#F7FFE8"/>
    </linearGradient>
    <linearGradient id="stFrame" x1="34" y1="40" x2="330" y2="318" gradientUnits="userSpaceOnUse">
      <stop stop-color="#F7FAF5" stop-opacity="0.32"/>
      <stop offset="0.5" stop-color="#63E6BE" stop-opacity="0.16"/>
      <stop offset="1" stop-color="#F7FAF5" stop-opacity="0.08"/>
    </linearGradient>
  </defs>
  <rect width="1280" height="360" fill="#060908"/>
  <g transform="translate(44 34)">
    <rect x="10" y="10" width="272" height="272" rx="44" fill="#0A100D" stroke="url(#stFrame)" stroke-width="2"/>
    <rect x="32" y="32" width="228" height="228" rx="34" stroke="#203B33" stroke-width="1.5"/>
    <path d="M202 71C172 54 116 56 93 83C76 103 90 124 130 130L168 136C219 144 232 188 193 219C156 248 96 245 61 219" stroke="#07110E" stroke-width="42" stroke-linecap="round" stroke-linejoin="round"/>
    <path d="M202 71C172 54 116 56 93 83C76 103 90 124 130 130L168 136C219 144 232 188 193 219C156 248 96 245 61 219" stroke="url(#stSignal)" stroke-width="24" stroke-linecap="round" stroke-linejoin="round"/>
    <path d="M198 70H258" stroke="#F7FAF5" stroke-width="18" stroke-linecap="round"/>
    <path d="M228 70V222" stroke="url(#stSignal)" stroke-width="18" stroke-linecap="round"/>
    <circle cx="228" cy="70" r="6" fill="#F7FFE8"/>
    <circle cx="228" cy="222" r="6" fill="#63E6BE"/>
  </g>
  <g transform="translate(386 99)">
    <text x="0" y="70" fill="#F7FAF5" font-family="Inter, Segoe UI, Arial, sans-serif" font-size="88" font-weight="850" letter-spacing="2">SHIHAAB</text>
    <text x="4" y="138" fill="#B7C4BE" font-family="Inter, Segoe UI, Arial, sans-serif" font-size="46" font-weight="700" letter-spacing="9">TECH</text>
    <path d="M166 124H448" stroke="#263A33" stroke-width="2"/>
    <path d="M166 124H286" stroke="#63E6BE" stroke-width="6" stroke-linecap="round"/>
    <text x="4" y="184" fill="#7D8B85" font-family="Inter, Segoe UI, Arial, sans-serif" font-size="18" font-weight="650" letter-spacing="4">WEBSITES  APPS  AUTOMATION</text>
  </g>
</svg>
