<svg width="1280" height="360" viewBox="0 0 1280 360" fill="none" xmlns="http://www.w3.org/2000/svg" role="img" aria-labelledby="title desc">
  <title id="title">Shihaab Tech logo alternative 02 - signal S</title>
  <desc id="desc">A minimal signal S mark with a premium Shihaab Tech wordmark for dark backgrounds.</desc>
  <defs>
    <linearGradient id="sSignal" x1="64" y1="272" x2="286" y2="64" gradientUnits="userSpaceOnUse">
      <stop stop-color="#F7FAF5"/>
      <stop offset="0.22" stop-color="#74F2D2"/>
      <stop offset="0.62" stop-color="#5DF05B"/>
      <stop offset="1" stop-color="#F7FFE8"/>
    </linearGradient>
    <radialGradient id="sGlow" cx="0" cy="0" r="1" gradientUnits="userSpaceOnUse" gradientTransform="translate(166 168) rotate(90) scale(152)">
      <stop stop-color="#63E6BE" stop-opacity="0.22"/>
      <stop offset="1" stop-color="#63E6BE" stop-opacity="0"/>
    </radialGradient>
  </defs>
  <rect width="1280" height="360" fill="#060908"/>
  <g transform="translate(48 34)">
    <circle cx="144" cy="144" r="142" fill="url(#sGlow)"/>
    <circle cx="144" cy="144" r="120" stroke="#1E342D" stroke-width="2"/>
    <circle cx="144" cy="144" r="92" stroke="#0F211B" stroke-width="1.5"/>
    <path d="M221 83C177 55 100 60 72 99C45 136 70 168 130 174L166 178C225 184 249 226 207 261C166 294 91 291 48 258" stroke="#07110E" stroke-width="56" stroke-linecap="round" stroke-linejoin="round"/>
    <path d="M221 83C177 55 100 60 72 99C45 136 70 168 130 174L166 178C225 184 249 226 207 261C166 294 91 291 48 258" stroke="url(#sSignal)" stroke-width="31" stroke-linecap="round" stroke-linejoin="round"/>
    <circle cx="224" cy="82" r="12" fill="#F7FFE8"/>
    <circle cx="224" cy="82" r="5" fill="#07110E"/>
    <path d="M254 60L263 79L283 88L263 97L254 116L245 97L225 88L245 79L254 60Z" fill="#F7FFE8"/>
  </g>
  <g transform="translate(392 94)">
    <text x="0" y="76" fill="#F7FAF5" font-family="Inter, Segoe UI, Arial, sans-serif" font-size="90" font-weight="820">Shihaab</text>
    <text x="0" y="146" fill="#63E6BE" font-family="Inter, Segoe UI, Arial, sans-serif" font-size="48" font-weight="760" letter-spacing="7">TECH</text>
    <path d="M164 132H512" stroke="#22342E" stroke-width="2"/>
    <path d="M164 132H286" stroke="#63E6BE" stroke-width="6" stroke-linecap="round"/>
    <text x="2" y="194" fill="#8A9791" font-family="Inter, Segoe UI, Arial, sans-serif" font-size="19" font-weight="650" letter-spacing="2">Digital products for modern business</text>
  </g>
</svg>
