<svg width="1280" height="360" viewBox="0 0 1280 360" fill="none" xmlns="http://www.w3.org/2000/svg" role="img" aria-labelledby="title desc">
  <title id="title">Shihaab Tech premium logo option 02 - Lattice Mark</title>
  <desc id="desc">A premium software identity with a geometric S lattice and clean wordmark.</desc>
  <defs>
    <linearGradient id="latticeLine" x1="66" y1="260" x2="292" y2="78" gradientUnits="userSpaceOnUse">
      <stop stop-color="#F4F7F3"/>
      <stop offset="0.42" stop-color="#55E6D8"/>
      <stop offset="1" stop-color="#BFFFE6"/>
    </linearGradient>
    <linearGradient id="latticeFrame" x1="58" y1="40" x2="274" y2="292" gradientUnits="userSpaceOnUse">
      <stop stop-color="#F4F7F3" stop-opacity="0.28"/>
      <stop offset="1" stop-color="#55E6D8" stop-opacity="0.08"/>
    </linearGradient>
  </defs>
  <rect width="1280" height="360" fill="#050807"/>
  <g transform="translate(54 32)">
    <path d="M148 14L264 80V214L148 280L32 214V80L148 14Z" fill="#080D0B" stroke="url(#latticeFrame)" stroke-width="2"/>
    <path d="M148 48L234 98V196L148 246L62 196V98L148 48Z" stroke="#152B25" stroke-width="1.4"/>
    <path d="M93 91H199L108 147H196L102 205H205" stroke="#050807" stroke-width="42" stroke-linecap="round" stroke-linejoin="round"/>
    <path d="M93 91H199L108 147H196L102 205H205" stroke="url(#latticeLine)" stroke-width="19" stroke-linecap="round" stroke-linejoin="round"/>
    <path d="M64 98L232 196M232 98L64 196" stroke="#55E6D8" stroke-width="1.2" opacity="0.18"/>
    <circle cx="93" cy="91" r="5" fill="#F4F7F3"/>
    <circle cx="205" cy="205" r="5" fill="#55E6D8"/>
  </g>
  <g transform="translate(390 91)">
    <text x="0" y="78" fill="#F8FBF7" font-family="Space Grotesk, Inter, Segoe UI, Arial, sans-serif" font-size="88" font-weight="780" letter-spacing="3">SHIHAAB</text>
    <text x="4" y="145" fill="#55E6D8" font-family="Inter, Segoe UI, Arial, sans-serif" font-size="36" font-weight="760" letter-spacing="17">TECH</text>
    <path d="M158 133H524" stroke="#1D322C" stroke-width="2"/>
    <path d="M158 133H326" stroke="#55E6D8" stroke-width="4" stroke-linecap="round"/>
    <text x="5" y="194" fill="#7B8883" font-family="Inter, Segoe UI, Arial, sans-serif" font-size="16" font-weight="650" letter-spacing="4">WEB APPS  SAAS  AUTOMATION</text>
  </g>
</svg>
